<?xml version="1.0" encoding="utf-8"?>
<!-- Generator: Adobe Illustrator 25.4.1, SVG Export Plug-In . SVG Version: 6.00 Build 0)  -->
<svg version="1.1" id="Calque_1" xmlns="http://www.w3.org/2000/svg" xmlns:xlink="http://www.w3.org/1999/xlink" x="0px" y="0px"
	 viewBox="0 0 36 36" style="enable-background:new 0 0 36 36;" xml:space="preserve">
<style type="text/css">
	.st0{fill:#D8D8D8;}
</style>
<path class="st0" d="M27.3,34.6c-0.4,0-0.8-0.1-1.2-0.4L18,28.4l-8.1,5.8c-0.7,0.5-1.6,0.5-2.3,0c-0.7-0.5-1-1.4-0.7-2.2l3-9.8
	l-8.1-5.7c-0.7-0.5-1-1.4-0.7-2.2C1.4,13.6,2.1,13,3,13l10,0l3.2-9.5c0.3-0.8,1-1.4,1.9-1.4s1.6,0.5,1.9,1.4L23,13l10,0
	c0.9,0,1.6,0.6,1.9,1.4c0.3,0.8,0,1.7-0.7,2.2l-8.1,5.7l3,9.8c0.3,0.8,0,1.7-0.7,2.2C28.1,34.5,27.7,34.6,27.3,34.6z"/>
</svg>
